<?xml version="1.0" standalone="no"?>
<!DOCTYPE svg PUBLIC "-//W3C//DTD SVG 20010904//EN"
 "http://www.w3.org/TR/2001/REC-SVG-20010904/DTD/svg10.dtd">
<svg version="1.0" xmlns="http://www.w3.org/2000/svg"
 width="30.000000pt" height="30.000000pt" viewBox="-15 -20 60.000000 60.000000"
 preserveAspectRatio="xMidYMid meet">

<g transform="translate(0.000000,48.000000) scale(0.100000,-0.100000)"
fill="#000000" stroke="none">
<path d="M40 346 l0 -73 38 -6 c20 -3 76 -9 125 -13 48 -4 87 -10 87 -14 0 -3
-55 -11 -121 -18 -67 -6 -123 -13 -126 -15 -2 -3 -3 -36 -1 -75 l3 -70 193 86
c105 48 192 89 192 92 0 5 -76 40 -337 156 l-53 24 0 -74z"/>
</g>
</svg>
